{"title":"Formula 1 2007 Round 6 Canada Race","uid":9224617,"size":1351998827,"categoryP":"video","categoryS":"tv_shows","magnet":"?xt=urn:btih:05a1dcb26ec44a8bc6e484f499591d38eaac3b42&amp;dn=Formula+1+2007+Round+6+Canada+Race&amp;tr=udp%3A%2F%2Ftracker.openbittorrent.com%3A80&amp;tr=udp%3A%2F%2Fopen.demonii.com%3A1337&amp;tr=udp%3A%2F%2Ftracker.coppersurfer.tk%3A6969&amp;tr=udp%3A%2F%2Fexodus.desync.com%3A6969","seeders":1,"leechers":1,"uploader":"totocon","files":1,"time":1384988506,"description":"ITV broadcast \n\nPlease seed untill 1:1 or higher so i can upload more races.\n\nthank you!\n\nFormat version                           : Version 4 / Version 2\nFile size                                : 1.26 GiB\nDuration                                 : 2h 32mn\nOverall bit rate mode                    : Variable\nOverall bit rate                         : 1 180 Kbps\nEncoded date                             : UTC 2013-11-20 21:44:22\nWriting application                      : mkvmerge v6.3.0 ('You can't stop me!') built on Jun 27 2013 22:06:07\nWriting library                          : libebml v1.3.0 + libmatroska v1.4.0\n\nVideo\nID                                       : 1\nFormat                                   : MPEG-4 Visual\nFormat profile                           : Advanced Simple@L5\nFormat settings, BVOP                    : Yes\nFormat settings, QPel                    : No\nFormat settings, GMC                     : No warppoints\nFormat settings, Matrix                  : Default (H.263)\nCodec ID                                 : V_MS/VFW/FOURCC / DX50\nCodec ID/Hint                            : DivX 5\nDuration                                 : 2h 32mn\nBit rate                                 : 1 070 Kbps\nWidth                                    : 640 pixels\nHeight                                   : 352 pixels\nDisplay aspect ratio                     : 16:9\nFrame rate mode                          : Constant\nFrame rate                               : 25.000 fps\nColor space                              : YUV\nChroma subsampling                       : 4:2:0\nBit depth                                : 8 bits\nScan type                                : Progressive\nCompression mode                         : Lossy\nBits/(Pixel*Frame)                       : 0.190\nStream size                              : 1.14 GiB (91%)\nWriting library                          : XviD 1.1.2 (UTC 2006-11-01)\nDefault                                  : Yes\nForced                                   : No\n\nAudio\nID                                       : 2\nFormat                                   : MPEG Audio\nFormat version                           : Version 1\nFormat profile                           : Layer 3\nMode                                     : Joint stereo\nMode extension                           : MS Stereo\nCodec ID                                 : A_MPEG/L3\nCodec ID/Hint                            : MP3\nDuration                                 : 2h 32mn\nBit rate mode                            : Variable\nBit rate                                 : 86.2 Kbps\nChannel(s)                               : 2 channels\nSampling rate                            : 48.0 KHz\nCompression mode                         : Lossy\nStream size                              : 94.2 MiB (7%)\nDefault                                  : Yes\nForced                                   : No\n\n","torrent":{"xt":"urn:btih:05a1dcb26ec44a8bc6e484f499591d38eaac3b42","amp;dn":"Formula+1+2007+Round+6+Canada+Race","amp;tr":["udp%3A%2F%2Ftracker.openbittorrent.com%3A80","udp%3A%2F%2Fopen.demonii.com%3A1337","udp%3A%2F%2Ftracker.coppersurfer.tk%3A6969","udp%3A%2F%2Fexodus.desync.com%3A6969"],"infoHash":"05a1dcb26ec44a8bc6e484f499591d38eaac3b42","infoHashBuffer":{"type":"Buffer","data":[5,161,220,178,110,196,74,139,198,228,132,244,153,89,29,56,234,172,59,66]},"announce":[],"urlList":[]}}